<?xml version="1.0" encoding="UTF-8" standalone="no"?>
<!-- Created with Inkscape (http://www.inkscape.org/) -->

<svg
   xmlns:dc="http://purl.org/dc/elements/1.1/"
   xmlns:cc="http://creativecommons.org/ns#"
   xmlns:rdf="http://www.w3.org/1999/02/22-rdf-syntax-ns#"
   xmlns:svg="http://www.w3.org/2000/svg"
   xmlns="http://www.w3.org/2000/svg"
   xmlns:sodipodi="http://sodipodi.sourceforge.net/DTD/sodipodi-0.dtd"
   xmlns:inkscape="http://www.inkscape.org/namespaces/inkscape"
   version="1.1"
   id="svg3713"
   width="81.919998"
   height="81.919998"
   viewBox="0 0 81.919998 81.919998"
   sodipodi:docname="icon.svg"
   inkscape:version="0.92.3 (2405546, 2018-03-11)">
  <metadata
     id="metadata3719">
    <rdf:RDF>
      <cc:Work
         rdf:about="">
        <dc:format>image/svg+xml</dc:format>
        <dc:type
           rdf:resource="http://purl.org/dc/dcmitype/StillImage" />
        <dc:title />
      </cc:Work>
    </rdf:RDF>
  </metadata>
  <defs
     id="defs3717" />
  <sodipodi:namedview
     pagecolor="#ffffff"
     bordercolor="#666666"
     borderopacity="1"
     objecttolerance="10"
     gridtolerance="10"
     guidetolerance="10"
     inkscape:pageopacity="0"
     inkscape:pageshadow="2"
     inkscape:window-width="2400"
     inkscape:window-height="1271"
     id="namedview3715"
     showgrid="false"
     inkscape:zoom="13.15918"
     inkscape:cx="28.269239"
     inkscape:cy="40.959999"
     inkscape:window-x="2391"
     inkscape:window-y="-9"
     inkscape:window-maximized="1"
     inkscape:current-layer="svg3713" />
  <g
     id="g3723"
     transform="translate(-0.37996312,0.22797808)">
    <path
       style="fill:#b9b9b9;fill-opacity:1;stroke-width:0.31999999"
       d="M 34.399999,80.507409 C 30.621745,79.775947 28.207058,79.055844 25.232958,77.77364 13.671256,72.789118 5.1250626,62.679624 1.9873454,50.275855 1.2045975,47.181557 1.1283138,46.340082 1.1283138,40.799999 c 0,-5.540083 0.076284,-6.381558 0.8590316,-9.475854 C 5.7218155,16.561338 16.881338,5.4018155 31.644145,1.6673454 c 3.094296,-0.78274792 3.935771,-0.85903163 9.475854,-0.85903163 5.540083,0 6.381558,0.0762837 9.475856,0.85903163 14.762806,3.7344701 25.922329,14.8939926 29.656799,29.6567996 0.782746,3.094296 0.85903,3.935771 0.85903,9.475854 0,5.540083 -0.07628,6.381558 -0.85903,9.475856 -3.716925,14.693439 -14.90863,25.930687 -29.490524,29.61053 -2.687248,0.678144 -4.173174,0.838413 -8.682131,0.936429 -3.717165,0.08081 -6.149401,-0.01907 -7.68,-0.315405 z m 10.4,-2.118093 c 8.731347,-0.91791 16.847244,-4.754137 22.93318,-10.840076 2.313363,-2.31336 5.541923,-6.490227 6.059734,-7.839629 0.178096,-0.464112 -2.739068,-0.509612 -32.672914,-0.509612 -29.933846,0 -32.851012,0.0455 -32.6729147,0.509612 0.5178131,1.349402 3.7463727,5.526269 6.0597337,7.839629 5.936698,5.936697 14.294897,9.952675 22.524285,10.822544 3.541661,0.374364 4.357149,0.376204 7.768896,0.01754 z m -15.68,-5.379721 c 0,-1.764707 0.82185,-2.390093 3.352711,-2.551245 1.785635,-0.113702 2.167715,-0.03149 3.101888,0.667437 0.585971,0.43841 1.569401,0.96983 2.185401,1.180934 1.011843,0.346759 1.351763,0.285498 3.52,-0.634368 3.227389,-1.369212 6.171078,-1.623088 7.966822,-0.687094 1.921159,1.001363 4.01744,1.176125 6.276915,0.523286 1.053946,-0.304521 2.200304,-0.750518 2.547466,-0.99111 0.347158,-0.240589 1.103158,-0.437437 1.68,-0.437437 0.875395,0 1.048189,0.11904 1.045126,0.72 -0.004,0.775495 -1.020509,1.375024 -3.982813,2.348938 -2.27184,0.746909 -6.900351,0.505273 -8.649305,-0.451546 -1.509853,-0.826009 -2.436662,-0.723584 -5.725923,0.632797 -3.35001,1.381434 -5.926179,1.166051 -8.289337,-0.693037 -1.297108,-1.020432 -3.428951,-0.397449 -3.428951,1.002029 0,0.427539 -0.230724,0.600819 -0.8,0.600819 -0.714625,0 -0.8,-0.131305 -0.8,-1.230403 z m 6.825117,-4.724688 c -0.558189,-0.275286 -1.566189,-0.960672 -2.24,-1.523081 -1.824229,-1.522624 -2.845409,-1.865408 -6.091562,-2.044794 -2.31065,-0.127686 -3.182603,-0.05076 -4.040866,0.356515 -1.215921,0.576992 -2.132689,1.761354 -2.132689,2.755194 0,0.481341 -0.208723,0.651257 -0.8,0.651257 -0.724992,0 -0.799999,-0.124681 -0.799999,-1.329795 0,-1.433785 1.230162,-3.470205 2.096285,-3.470205 0.255043,0 0.463714,-0.159696 0.463714,-0.354876 0,-0.249876 1.39658,-0.315095 4.72,-0.22042 5.151667,0.146756 6.161242,0.412829 8.03585,2.117866 0.591718,0.538192 1.584649,1.219974 2.206515,1.515069 1.063302,0.504569 1.199389,0.503081 2.28415,-0.02496 3.312743,-1.612541 4.88049,-2.02928 8.435488,-2.242317 2.956864,-0.177197 3.854592,-0.120346 5.037997,0.31904 2.9735,1.104026 3.871945,1.205334 5.425987,0.61184 0.796377,-0.304138 2.089513,-0.959843 2.873635,-1.457117 1.793305,-1.13728 3.221533,-1.219011 3.217737,-0.184137 -0.0026,0.738272 -0.758275,1.270915 -4.312054,3.039817 -1.385808,0.689789 -1.909769,0.775066 -4,0.651005 -1.513053,-0.0898 -2.820771,-0.367011 -3.525305,-0.747296 -0.899411,-0.485469 -1.685552,-0.589907 -3.991495,-0.530272 -2.888377,0.0747 -4.737164,0.56271 -7.530553,1.987789 -1.509776,0.770233 -3.909216,0.825965 -5.332835,0.123865 z m 9.174883,-11.831408 c 0,-0.474713 -15.864982,-30.136945 -16.055807,-30.019009 -0.225651,0.13946 -20.503444,29.486296 -20.6908588,29.944641 -0.058667,0.143479 8.1853328,0.260868 18.3199998,0.260868 10.134666,0 18.426666,-0.08392 18.426666,-0.1865 z m 17.085279,-25.4935 C 55.233743,17.012 49.491932,5.5583682 49.445698,5.5074853 49.399464,5.4566024 45.882376,11.10997 41.629951,18.070525 l -7.731686,12.655554 6.759244,12.79696 6.759242,12.79696 H 61.148773 74.880798 Z M 17.571672,39.356447 C 26.781445,25.977585 28.705213,23.359999 29.3281,23.359999 c 0.61131,0 0.979011,0.46591 2.052117,2.600211 0.719049,1.430116 1.424781,2.474116 1.568291,2.32 C 33.446742,27.745165 48.007909,3.7412437 47.899816,3.63315 47.840028,3.5733612 46.301391,3.3715692 44.48062,3.184723 36.241433,2.3392223 27.40238,4.6028741 20.187265,9.4061713 12.593422,14.461597 7.0114021,22.244824 4.6474146,31.073988 2.6690014,38.463087 2.9334431,45.529653 5.4813912,53.359999 c 0.3579335,1.1 0.7470477,1.998403 0.8646982,1.996448 0.1176509,-0.0019 5.1691626,-7.201952 11.2255826,-16 z M 77.622277,50.399999 C 81.078216,37.559938 77.305643,23.623222 67.801211,14.118787 64.971598,11.289175 60.231215,7.9267592 57.108875,6.5345752 55.087896,5.6334642 51.922258,4.4799999 51.470172,4.4799999 c -0.148298,0 5.380236,11.3008371 12.285631,25.1129721 10.382845,20.767699 12.601645,24.989606 12.82329,24.399999 0.147411,-0.392134 0.616844,-2.008972 1.043184,-3.592972 z"
       id="path3737"
       inkscape:connector-curvature="0" />
    <path
       style="fill:#a3a3a3;fill-opacity:1;stroke-width:0.31999999"
       d="M 34.399999,80.507409 C 30.621745,79.775947 28.207058,79.055844 25.232958,77.77364 13.671256,72.789118 5.1250626,62.679624 1.9873454,50.275855 1.2045975,47.181557 1.1283138,46.340082 1.1283138,40.799999 c 0,-5.540083 0.076284,-6.381558 0.8590316,-9.475854 C 5.7218155,16.561338 16.881338,5.4018155 31.644145,1.6673454 c 3.094296,-0.78274792 3.935771,-0.85903163 9.475854,-0.85903163 5.540083,0 6.381558,0.0762837 9.475856,0.85903163 14.762806,3.7344701 25.922329,14.8939926 29.656799,29.6567996 0.782746,3.094296 0.85903,3.935771 0.85903,9.475854 0,5.540083 -0.07628,6.381558 -0.85903,9.475856 -3.716925,14.693439 -14.90863,25.930687 -29.490524,29.61053 -2.687248,0.678144 -4.173174,0.838413 -8.682131,0.936429 -3.717165,0.08081 -6.149401,-0.01907 -7.68,-0.315405 z m 10.4,-2.118093 c 8.731347,-0.91791 16.847244,-4.754137 22.93318,-10.840076 2.313363,-2.31336 5.541923,-6.490227 6.059734,-7.839629 0.178096,-0.464112 -2.739068,-0.509612 -32.672914,-0.509612 -29.933846,0 -32.851012,0.0455 -32.6729147,0.509612 0.5178131,1.349402 3.7463727,5.526269 6.0597337,7.839629 5.936698,5.936697 14.294897,9.952675 22.524285,10.822544 3.541661,0.374364 4.357149,0.376204 7.768896,0.01754 z m -15.68,-5.379721 c 0,-1.764707 0.82185,-2.390093 3.352711,-2.551245 1.785635,-0.113702 2.167715,-0.03149 3.101888,0.667437 0.585971,0.43841 1.569401,0.96983 2.185401,1.180934 1.011843,0.346759 1.351763,0.285498 3.52,-0.634368 3.227389,-1.369212 6.171078,-1.623088 7.966822,-0.687094 1.921159,1.001363 4.01744,1.176125 6.276915,0.523286 1.053946,-0.304521 2.200304,-0.750518 2.547466,-0.99111 0.347158,-0.240589 1.103158,-0.437437 1.68,-0.437437 0.875395,0 1.048189,0.11904 1.045126,0.72 -0.004,0.775495 -1.020509,1.375024 -3.982813,2.348938 -2.27184,0.746909 -6.900351,0.505273 -8.649305,-0.451546 -1.509853,-0.826009 -2.436662,-0.723584 -5.725923,0.632797 -3.35001,1.381434 -5.926179,1.166051 -8.289337,-0.693037 -1.297108,-1.020432 -3.428951,-0.397449 -3.428951,1.002029 0,0.427539 -0.230724,0.600819 -0.8,0.600819 -0.714625,0 -0.8,-0.131305 -0.8,-1.230403 z m 6.825117,-4.724688 c -0.558189,-0.275286 -1.566189,-0.960672 -2.24,-1.523081 -1.824229,-1.522624 -2.845409,-1.865408 -6.091562,-2.044794 -2.31065,-0.127686 -3.182603,-0.05076 -4.040866,0.356515 -1.215921,0.576992 -2.132689,1.761354 -2.132689,2.755194 0,0.481341 -0.208723,0.651257 -0.8,0.651257 -0.724992,0 -0.799999,-0.124681 -0.799999,-1.329795 0,-1.433785 1.230162,-3.470205 2.096285,-3.470205 0.255043,0 0.463714,-0.159696 0.463714,-0.354876 0,-0.249876 1.39658,-0.315095 4.72,-0.22042 5.151667,0.146756 6.161242,0.412829 8.03585,2.117866 0.591718,0.538192 1.584649,1.219974 2.206515,1.515069 1.063302,0.504569 1.199389,0.503081 2.28415,-0.02496 3.312743,-1.612541 4.88049,-2.02928 8.435488,-2.242317 2.956864,-0.177197 3.854592,-0.120346 5.037997,0.31904 2.9735,1.104026 3.871945,1.205334 5.425987,0.61184 0.796377,-0.304138 2.089513,-0.959843 2.873635,-1.457117 1.793305,-1.13728 3.221533,-1.219011 3.217737,-0.184137 -0.0026,0.738272 -0.758275,1.270915 -4.312054,3.039817 -1.385808,0.689789 -1.909769,0.775066 -4,0.651005 -1.513053,-0.0898 -2.820771,-0.367011 -3.525305,-0.747296 -0.899411,-0.485469 -1.685552,-0.589907 -3.991495,-0.530272 -2.888377,0.0747 -4.737164,0.56271 -7.530553,1.987789 -1.509776,0.770233 -3.909216,0.825965 -5.332835,0.123865 z m 9.174883,-11.831408 c 0,-0.474713 -15.864982,-30.136945 -16.055807,-30.019009 -0.225651,0.13946 -20.503444,29.486296 -20.6908588,29.944641 -0.058667,0.143479 8.1853328,0.260868 18.3199998,0.260868 10.134666,0 18.426666,-0.08392 18.426666,-0.1865 z m 17.085279,-25.4935 C 55.233743,17.012 49.491932,5.5583682 49.445698,5.5074853 49.399464,5.4566024 45.882376,11.10997 41.629951,18.070525 l -7.731686,12.655554 6.759244,12.79696 6.759242,12.79696 H 61.148773 74.880798 Z M 17.571672,39.356447 C 26.781445,25.977585 28.705213,23.359999 29.3281,23.359999 c 0.61131,0 0.979011,0.46591 2.052117,2.600211 0.719049,1.430116 1.424781,2.474116 1.568291,2.32 C 33.446742,27.745165 48.007909,3.7412437 47.899816,3.63315 47.840028,3.5733612 46.301391,3.3715692 44.48062,3.184723 36.241433,2.3392223 27.40238,4.6028741 20.187265,9.4061713 12.593422,14.461597 7.0114021,22.244824 4.6474146,31.073988 2.6690014,38.463087 2.9334431,45.529653 5.4813912,53.359999 c 0.3579335,1.1 0.7470477,1.998403 0.8646982,1.996448 0.1176509,-0.0019 5.1691626,-7.201952 11.2255826,-16 z M 77.622277,50.399999 C 81.078216,37.559938 77.305643,23.623222 67.801211,14.118787 64.971598,11.289175 60.231215,7.9267592 57.108875,6.5345752 55.087896,5.6334642 51.922258,4.4799999 51.470172,4.4799999 c -0.148298,0 5.380236,11.3008371 12.285631,25.1129721 10.382845,20.767699 12.601645,24.989606 12.82329,24.399999 0.147411,-0.392134 0.616844,-2.008972 1.043184,-3.592972 z"
       id="path3735"
       inkscape:connector-curvature="0" />
    <path
       style="fill:#8c8c8c;fill-opacity:1;stroke-width:0.31999999"
       d="M 34.399999,80.507409 C 30.621745,79.775947 28.207058,79.055844 25.232958,77.77364 13.671256,72.789118 5.1250626,62.679624 1.9873454,50.275855 1.2045975,47.181557 1.1283138,46.340082 1.1283138,40.799999 c 0,-5.540083 0.076284,-6.381558 0.8590316,-9.475854 C 5.7218155,16.561338 16.881338,5.4018155 31.644145,1.6673454 c 3.094296,-0.78274792 3.935771,-0.85903163 9.475854,-0.85903163 5.540083,0 6.381558,0.0762837 9.475856,0.85903163 14.762806,3.7344701 25.922329,14.8939926 29.656799,29.6567996 0.782746,3.094296 0.85903,3.935771 0.85903,9.475854 0,5.540083 -0.07628,6.381558 -0.85903,9.475856 -3.716925,14.693439 -14.90863,25.930687 -29.490524,29.61053 -2.687248,0.678144 -4.173174,0.838413 -8.682131,0.936429 -3.717165,0.08081 -6.149401,-0.01907 -7.68,-0.315405 z m 10.4,-2.118093 c 8.731347,-0.91791 16.847244,-4.754137 22.93318,-10.840076 2.313363,-2.31336 5.541923,-6.490227 6.059734,-7.839629 0.178096,-0.464112 -2.739068,-0.509612 -32.672914,-0.509612 -29.933846,0 -32.851012,0.0455 -32.6729147,0.509612 0.5178131,1.349402 3.7463727,5.526269 6.0597337,7.839629 5.936698,5.936697 14.294897,9.952675 22.524285,10.822544 3.541661,0.374364 4.357149,0.376204 7.768896,0.01754 z m -15.68,-5.379721 c 0,-1.764707 0.82185,-2.390093 3.352711,-2.551245 1.785635,-0.113702 2.167715,-0.03149 3.101888,0.667437 0.585971,0.43841 1.569401,0.96983 2.185401,1.180934 1.011843,0.346759 1.351763,0.285498 3.52,-0.634368 3.227389,-1.369212 6.171078,-1.623088 7.966822,-0.687094 1.921159,1.001363 4.01744,1.176125 6.276915,0.523286 1.053946,-0.304521 2.200304,-0.750518 2.547466,-0.99111 0.347158,-0.240589 1.103158,-0.437437 1.68,-0.437437 0.875395,0 1.048189,0.11904 1.045126,0.72 -0.004,0.775495 -1.020509,1.375024 -3.982813,2.348938 -2.27184,0.746909 -6.900351,0.505273 -8.649305,-0.451546 -1.509853,-0.826009 -2.436662,-0.723584 -5.725923,0.632797 -3.35001,1.381434 -5.926179,1.166051 -8.289337,-0.693037 -1.297108,-1.020432 -3.428951,-0.397449 -3.428951,1.002029 0,0.427539 -0.230724,0.600819 -0.8,0.600819 -0.714625,0 -0.8,-0.131305 -0.8,-1.230403 z m 6.825117,-4.724688 c -0.558189,-0.275286 -1.566189,-0.960672 -2.24,-1.523081 -1.824229,-1.522624 -2.845409,-1.865408 -6.091562,-2.044794 -2.31065,-0.127686 -3.182603,-0.05076 -4.040866,0.356515 -1.215921,0.576992 -2.132689,1.761354 -2.132689,2.755194 0,0.481341 -0.208723,0.651257 -0.8,0.651257 -0.724992,0 -0.799999,-0.124681 -0.799999,-1.329795 0,-1.433785 1.230162,-3.470205 2.096285,-3.470205 0.255043,0 0.463714,-0.159696 0.463714,-0.354876 0,-0.249876 1.39658,-0.315095 4.72,-0.22042 5.151667,0.146756 6.161242,0.412829 8.03585,2.117866 0.591718,0.538192 1.584649,1.219974 2.206515,1.515069 1.063302,0.504569 1.199389,0.503081 2.28415,-0.02496 3.312743,-1.612541 4.88049,-2.02928 8.435488,-2.242317 2.956864,-0.177197 3.854592,-0.120346 5.037997,0.31904 2.9735,1.104026 3.871945,1.205334 5.425987,0.61184 0.796377,-0.304138 2.089513,-0.959843 2.873635,-1.457117 1.793305,-1.13728 3.221533,-1.219011 3.217737,-0.184137 -0.0026,0.738272 -0.758275,1.270915 -4.312054,3.039817 -1.385808,0.689789 -1.909769,0.775066 -4,0.651005 -1.513053,-0.0898 -2.820771,-0.367011 -3.525305,-0.747296 -0.899411,-0.485469 -1.685552,-0.589907 -3.991495,-0.530272 -2.888377,0.0747 -4.737164,0.56271 -7.530553,1.987789 -1.509776,0.770233 -3.909216,0.825965 -5.332835,0.123865 z m 9.174883,-11.831408 c 0,-0.474713 -15.864982,-30.136945 -16.055807,-30.019009 -0.225651,0.13946 -20.503444,29.486296 -20.6908588,29.944641 -0.058667,0.143479 8.1853328,0.260868 18.3199998,0.260868 10.134666,0 18.426666,-0.08392 18.426666,-0.1865 z m 17.085279,-25.4935 C 55.233743,17.012 49.491932,5.5583682 49.445698,5.5074853 49.399464,5.4566024 45.882376,11.10997 41.629951,18.070525 l -7.731686,12.655554 6.759244,12.79696 6.759242,12.79696 H 61.148773 74.880798 Z M 17.571672,39.356447 C 26.781445,25.977585 28.705213,23.359999 29.3281,23.359999 c 0.61131,0 0.979011,0.46591 2.052117,2.600211 0.719049,1.430116 1.424781,2.474116 1.568291,2.32 C 33.446742,27.745165 48.007909,3.7412437 47.899816,3.63315 47.840028,3.5733612 46.301391,3.3715692 44.48062,3.184723 36.241433,2.3392223 27.40238,4.6028741 20.187265,9.4061713 12.593422,14.461597 7.0114021,22.244824 4.6474146,31.073988 2.6690014,38.463087 2.9334431,45.529653 5.4813912,53.359999 c 0.3579335,1.1 0.7470477,1.998403 0.8646982,1.996448 0.1176509,-0.0019 5.1691626,-7.201952 11.2255826,-16 z M 77.622277,50.399999 C 81.078216,37.559938 77.305643,23.623222 67.801211,14.118787 64.971598,11.289175 60.231215,7.9267592 57.108875,6.5345752 55.087896,5.6334642 51.922258,4.4799999 51.470172,4.4799999 c -0.148298,0 5.380236,11.3008371 12.285631,25.1129721 10.382845,20.767699 12.601645,24.989606 12.82329,24.399999 0.147411,-0.392134 0.616844,-2.008972 1.043184,-3.592972 z"
       id="path3733"
       inkscape:connector-curvature="0" />
    <path
       style="fill:#767676;fill-opacity:1;stroke-width:0.31999999"
       d="M 34.399999,80.507409 C 30.621745,79.775947 28.207058,79.055844 25.232958,77.77364 13.671256,72.789118 5.1250626,62.679624 1.9873454,50.275855 1.2045975,47.181557 1.1283138,46.340082 1.1283138,40.799999 c 0,-5.540083 0.076284,-6.381558 0.8590316,-9.475854 C 5.7218155,16.561338 16.881338,5.4018155 31.644145,1.6673454 c 3.094296,-0.78274792 3.935771,-0.85903163 9.475854,-0.85903163 5.540083,0 6.381558,0.0762837 9.475856,0.85903163 14.762806,3.7344701 25.922329,14.8939926 29.656799,29.6567996 0.782746,3.094296 0.85903,3.935771 0.85903,9.475854 0,5.540083 -0.07628,6.381558 -0.85903,9.475856 -3.716925,14.693439 -14.90863,25.930687 -29.490524,29.61053 -2.687248,0.678144 -4.173174,0.838413 -8.682131,0.936429 -3.717165,0.08081 -6.149401,-0.01907 -7.68,-0.315405 z m 10.4,-2.118093 c 8.731347,-0.91791 16.847244,-4.754137 22.93318,-10.840076 2.313363,-2.31336 5.541923,-6.490227 6.059734,-7.839629 0.178096,-0.464112 -2.739068,-0.509612 -32.672914,-0.509612 -29.933846,0 -32.851012,0.0455 -32.6729147,0.509612 0.5178131,1.349402 3.7463727,5.526269 6.0597337,7.839629 5.936698,5.936697 14.294897,9.952675 22.524285,10.822544 3.541661,0.374364 4.357149,0.376204 7.768896,0.01754 z m -15.68,-5.379721 c 0,-1.764707 0.82185,-2.390093 3.352711,-2.551245 1.785635,-0.113702 2.167715,-0.03149 3.101888,0.667437 0.585971,0.43841 1.569401,0.96983 2.185401,1.180934 1.011843,0.346759 1.351763,0.285498 3.52,-0.634368 3.227389,-1.369212 6.171078,-1.623088 7.966822,-0.687094 1.921159,1.001363 4.01744,1.176125 6.276915,0.523286 1.053946,-0.304521 2.200304,-0.750518 2.547466,-0.99111 0.347158,-0.240589 1.103158,-0.437437 1.68,-0.437437 0.875395,0 1.048189,0.11904 1.045126,0.72 -0.004,0.775495 -1.020509,1.375024 -3.982813,2.348938 -2.27184,0.746909 -6.900351,0.505273 -8.649305,-0.451546 -1.509853,-0.826009 -2.436662,-0.723584 -5.725923,0.632797 -3.35001,1.381434 -5.926179,1.166051 -8.289337,-0.693037 -1.297108,-1.020432 -3.428951,-0.397449 -3.428951,1.002029 0,0.427539 -0.230724,0.600819 -0.8,0.600819 -0.714625,0 -0.8,-0.131305 -0.8,-1.230403 z m 6.825117,-4.724688 c -0.558189,-0.275286 -1.566189,-0.960672 -2.24,-1.523081 -1.824229,-1.522624 -2.845409,-1.865408 -6.091562,-2.044794 -2.31065,-0.127686 -3.182603,-0.05076 -4.040866,0.356515 -1.215921,0.576992 -2.132689,1.761354 -2.132689,2.755194 0,0.481341 -0.208723,0.651257 -0.8,0.651257 -0.724992,0 -0.799999,-0.124681 -0.799999,-1.329795 0,-1.433785 1.230162,-3.470205 2.096285,-3.470205 0.255043,0 0.463714,-0.159696 0.463714,-0.354876 0,-0.249876 1.39658,-0.315095 4.72,-0.22042 5.151667,0.146756 6.161242,0.412829 8.03585,2.117866 0.591718,0.538192 1.584649,1.219974 2.206515,1.515069 1.063302,0.504569 1.199389,0.503081 2.28415,-0.02496 3.312743,-1.612541 4.88049,-2.02928 8.435488,-2.242317 2.956864,-0.177197 3.854592,-0.120346 5.037997,0.31904 2.9735,1.104026 3.871945,1.205334 5.425987,0.61184 0.796377,-0.304138 2.089513,-0.959843 2.873635,-1.457117 1.793305,-1.13728 3.221533,-1.219011 3.217737,-0.184137 -0.0026,0.738272 -0.758275,1.270915 -4.312054,3.039817 -1.385808,0.689789 -1.909769,0.775066 -4,0.651005 -1.513053,-0.0898 -2.820771,-0.367011 -3.525305,-0.747296 -0.899411,-0.485469 -1.685552,-0.589907 -3.991495,-0.530272 -2.888377,0.0747 -4.737164,0.56271 -7.530553,1.987789 -1.509776,0.770233 -3.909216,0.825965 -5.332835,0.123865 z m 9.174883,-11.831408 c 0,-0.474713 -15.864982,-30.136945 -16.055807,-30.019009 -0.225651,0.13946 -20.503444,29.486296 -20.6908588,29.944641 -0.058667,0.143479 8.1853328,0.260868 18.3199998,0.260868 10.134666,0 18.426666,-0.08392 18.426666,-0.1865 z m 17.085279,-25.4935 C 55.233743,17.012 49.491932,5.5583682 49.445698,5.5074853 49.399464,5.4566024 45.882376,11.10997 41.629951,18.070525 l -7.731686,12.655554 6.759244,12.79696 6.759242,12.79696 H 61.148773 74.880798 Z M 17.571672,39.356447 C 26.781445,25.977585 28.705213,23.359999 29.3281,23.359999 c 0.61131,0 0.979011,0.46591 2.052117,2.600211 0.719049,1.430116 1.424781,2.474116 1.568291,2.32 C 33.446742,27.745165 48.007909,3.7412437 47.899816,3.63315 47.840028,3.5733612 46.301391,3.3715692 44.48062,3.184723 36.241433,2.3392223 27.40238,4.6028741 20.187265,9.4061713 12.593422,14.461597 7.0114021,22.244824 4.6474146,31.073988 2.6690014,38.463087 2.9334431,45.529653 5.4813912,53.359999 c 0.3579335,1.1 0.7470477,1.998403 0.8646982,1.996448 0.1176509,-0.0019 5.1691626,-7.201952 11.2255826,-16 z M 77.622277,50.399999 C 81.078216,37.559938 77.305643,23.623222 67.801211,14.118787 64.971598,11.289175 60.231215,7.9267592 57.108875,6.5345752 55.087896,5.6334642 51.922258,4.4799999 51.470172,4.4799999 c -0.148298,0 5.380236,11.3008371 12.285631,25.1129721 10.382845,20.767699 12.601645,24.989606 12.82329,24.399999 0.147411,-0.392134 0.616844,-2.008972 1.043184,-3.592972 z"
       id="path3731"
       inkscape:connector-curvature="0" />
    <path
       style="fill:#606060;fill-opacity:1;stroke-width:0.31999999"
       d="M 34.399999,80.507409 C 30.621745,79.775947 28.207058,79.055844 25.232958,77.77364 13.671256,72.789118 5.1250626,62.679624 1.9873454,50.275855 1.2045975,47.181557 1.1283138,46.340082 1.1283138,40.799999 c 0,-5.540083 0.076284,-6.381558 0.8590316,-9.475854 C 5.7218155,16.561338 16.881338,5.4018155 31.644145,1.6673454 c 3.094296,-0.78274792 3.935771,-0.85903163 9.475854,-0.85903163 5.540083,0 6.381558,0.0762837 9.475856,0.85903163 14.762806,3.7344701 25.922329,14.8939926 29.656799,29.6567996 0.782746,3.094296 0.85903,3.935771 0.85903,9.475854 0,5.540083 -0.07628,6.381558 -0.85903,9.475856 -3.716925,14.693439 -14.90863,25.930687 -29.490524,29.61053 -2.687248,0.678144 -4.173174,0.838413 -8.682131,0.936429 -3.717165,0.08081 -6.149401,-0.01907 -7.68,-0.315405 z m 10.4,-2.118093 c 8.731347,-0.91791 16.847244,-4.754137 22.93318,-10.840076 2.313363,-2.31336 5.541923,-6.490227 6.059734,-7.839629 0.178096,-0.464112 -2.739068,-0.509612 -32.672914,-0.509612 -29.933846,0 -32.851012,0.0455 -32.6729147,0.509612 0.5178131,1.349402 3.7463727,5.526269 6.0597337,7.839629 5.936698,5.936697 14.294897,9.952675 22.524285,10.822544 3.541661,0.374364 4.357149,0.376204 7.768896,0.01754 z m -15.68,-5.379721 c 0,-1.764707 0.82185,-2.390093 3.352711,-2.551245 1.785635,-0.113702 2.167715,-0.03149 3.101888,0.667437 0.585971,0.43841 1.569401,0.96983 2.185401,1.180934 1.011843,0.346759 1.351763,0.285498 3.52,-0.634368 3.227389,-1.369212 6.171078,-1.623088 7.966822,-0.687094 1.921159,1.001363 4.01744,1.176125 6.276915,0.523286 1.053946,-0.304521 2.200304,-0.750518 2.547466,-0.99111 0.347158,-0.240589 1.103158,-0.437437 1.68,-0.437437 0.875395,0 1.048189,0.11904 1.045126,0.72 -0.004,0.775495 -1.020509,1.375024 -3.982813,2.348938 -2.27184,0.746909 -6.900351,0.505273 -8.649305,-0.451546 -1.509853,-0.826009 -2.436662,-0.723584 -5.725923,0.632797 -3.35001,1.381434 -5.926179,1.166051 -8.289337,-0.693037 -1.297108,-1.020432 -3.428951,-0.397449 -3.428951,1.002029 0,0.427539 -0.230724,0.600819 -0.8,0.600819 -0.714625,0 -0.8,-0.131305 -0.8,-1.230403 z m 6.825117,-4.724688 c -0.558189,-0.275286 -1.566189,-0.960672 -2.24,-1.523081 -1.824229,-1.522624 -2.845409,-1.865408 -6.091562,-2.044794 -2.31065,-0.127686 -3.182603,-0.05076 -4.040866,0.356515 -1.215921,0.576992 -2.132689,1.761354 -2.132689,2.755194 0,0.481341 -0.208723,0.651257 -0.8,0.651257 -0.724992,0 -0.799999,-0.124681 -0.799999,-1.329795 0,-1.433785 1.230162,-3.470205 2.096285,-3.470205 0.255043,0 0.463714,-0.159696 0.463714,-0.354876 0,-0.249876 1.39658,-0.315095 4.72,-0.22042 5.151667,0.146756 6.161242,0.412829 8.03585,2.117866 0.591718,0.538192 1.584649,1.219974 2.206515,1.515069 1.063302,0.504569 1.199389,0.503081 2.28415,-0.02496 3.312743,-1.612541 4.88049,-2.02928 8.435488,-2.242317 2.956864,-0.177197 3.854592,-0.120346 5.037997,0.31904 2.9735,1.104026 3.871945,1.205334 5.425987,0.61184 0.796377,-0.304138 2.089513,-0.959843 2.873635,-1.457117 1.793305,-1.13728 3.221533,-1.219011 3.217737,-0.184137 -0.0026,0.738272 -0.758275,1.270915 -4.312054,3.039817 -1.385808,0.689789 -1.909769,0.775066 -4,0.651005 -1.513053,-0.0898 -2.820771,-0.367011 -3.525305,-0.747296 -0.899411,-0.485469 -1.685552,-0.589907 -3.991495,-0.530272 -2.888377,0.0747 -4.737164,0.56271 -7.530553,1.987789 -1.509776,0.770233 -3.909216,0.825965 -5.332835,0.123865 z m 9.174883,-11.831408 c 0,-0.474713 -15.864982,-30.136945 -16.055807,-30.019009 -0.225651,0.13946 -20.503444,29.486296 -20.6908588,29.944641 -0.058667,0.143479 8.1853328,0.260868 18.3199998,0.260868 10.134666,0 18.426666,-0.08392 18.426666,-0.1865 z m 17.085279,-25.4935 C 55.233743,17.012 49.491932,5.5583682 49.445698,5.5074853 49.399464,5.4566024 45.882376,11.10997 41.629951,18.070525 l -7.731686,12.655554 6.759244,12.79696 6.759242,12.79696 H 61.148773 74.880798 Z M 17.571672,39.356447 C 26.781445,25.977585 28.705213,23.359999 29.3281,23.359999 c 0.61131,0 0.979011,0.46591 2.052117,2.600211 0.719049,1.430116 1.424781,2.474116 1.568291,2.32 C 33.446742,27.745165 48.007909,3.7412437 47.899816,3.63315 47.840028,3.5733612 46.301391,3.3715692 44.48062,3.184723 36.241433,2.3392223 27.40238,4.6028741 20.187265,9.4061713 12.593422,14.461597 7.0114021,22.244824 4.6474146,31.073988 2.6690014,38.463087 2.9334431,45.529653 5.4813912,53.359999 c 0.3579335,1.1 0.7470477,1.998403 0.8646982,1.996448 0.1176509,-0.0019 5.1691626,-7.201952 11.2255826,-16 z M 77.622277,50.399999 C 81.078216,37.559938 77.305643,23.623222 67.801211,14.118787 64.971598,11.289175 60.231215,7.9267592 57.108875,6.5345752 55.087896,5.6334642 51.922258,4.4799999 51.470172,4.4799999 c -0.148298,0 5.380236,11.3008371 12.285631,25.1129721 10.382845,20.767699 12.601645,24.989606 12.82329,24.399999 0.147411,-0.392134 0.616844,-2.008972 1.043184,-3.592972 z"
       id="path3729"
       inkscape:connector-curvature="0" />
    <path
       style="fill:#494949;fill-opacity:1;stroke-width:0.31999999"
       d="M 34.399999,80.507409 C 30.621745,79.775947 28.207058,79.055844 25.232958,77.77364 13.671256,72.789118 5.1250626,62.679624 1.9873454,50.275855 1.2045975,47.181557 1.1283138,46.340082 1.1283138,40.799999 c 0,-5.540083 0.076284,-6.381558 0.8590316,-9.475854 C 5.7218155,16.561338 16.881338,5.4018155 31.644145,1.6673454 c 3.094296,-0.78274792 3.935771,-0.85903163 9.475854,-0.85903163 5.540083,0 6.381558,0.0762837 9.475856,0.85903163 14.762806,3.7344701 25.922329,14.8939926 29.656799,29.6567996 0.782746,3.094296 0.85903,3.935771 0.85903,9.475854 0,5.540083 -0.07628,6.381558 -0.85903,9.475856 -3.716925,14.693439 -14.90863,25.930687 -29.490524,29.61053 -2.687248,0.678144 -4.173174,0.838413 -8.682131,0.936429 -3.717165,0.08081 -6.149401,-0.01907 -7.68,-0.315405 z m 10.4,-2.118093 c 8.731347,-0.91791 16.847244,-4.754137 22.93318,-10.840076 2.313363,-2.31336 5.541923,-6.490227 6.059734,-7.839629 0.178096,-0.464112 -2.739068,-0.509612 -32.672914,-0.509612 -29.933846,0 -32.851012,0.0455 -32.6729147,0.509612 0.5178131,1.349402 3.7463727,5.526269 6.0597337,7.839629 5.936698,5.936697 14.294897,9.952675 22.524285,10.822544 3.541661,0.374364 4.357149,0.376204 7.768896,0.01754 z m -15.68,-5.379721 c 0,-1.764707 0.82185,-2.390093 3.352711,-2.551245 1.785635,-0.113702 2.167715,-0.03149 3.101888,0.667437 0.585971,0.43841 1.569401,0.96983 2.185401,1.180934 1.011843,0.346759 1.351763,0.285498 3.52,-0.634368 3.227389,-1.369212 6.171078,-1.623088 7.966822,-0.687094 1.921159,1.001363 4.01744,1.176125 6.276915,0.523286 1.053946,-0.304521 2.200304,-0.750518 2.547466,-0.99111 0.347158,-0.240589 1.103158,-0.437437 1.68,-0.437437 0.875395,0 1.048189,0.11904 1.045126,0.72 -0.004,0.775495 -1.020509,1.375024 -3.982813,2.348938 -2.27184,0.746909 -6.900351,0.505273 -8.649305,-0.451546 -1.509853,-0.826009 -2.436662,-0.723584 -5.725923,0.632797 -3.35001,1.381434 -5.926179,1.166051 -8.289337,-0.693037 -1.297108,-1.020432 -3.428951,-0.397449 -3.428951,1.002029 0,0.427539 -0.230724,0.600819 -0.8,0.600819 -0.714625,0 -0.8,-0.131305 -0.8,-1.230403 z m 6.825117,-4.724688 c -0.558189,-0.275286 -1.566189,-0.960672 -2.24,-1.523081 -1.824229,-1.522624 -2.845409,-1.865408 -6.091562,-2.044794 -2.31065,-0.127686 -3.182603,-0.05076 -4.040866,0.356515 -1.215921,0.576992 -2.132689,1.761354 -2.132689,2.755194 0,0.481341 -0.208723,0.651257 -0.8,0.651257 -0.724992,0 -0.799999,-0.124681 -0.799999,-1.329795 0,-1.433785 1.230162,-3.470205 2.096285,-3.470205 0.255043,0 0.463714,-0.159696 0.463714,-0.354876 0,-0.249876 1.39658,-0.315095 4.72,-0.22042 5.151667,0.146756 6.161242,0.412829 8.03585,2.117866 0.591718,0.538192 1.584649,1.219974 2.206515,1.515069 1.063302,0.504569 1.199389,0.503081 2.28415,-0.02496 3.312743,-1.612541 4.88049,-2.02928 8.435488,-2.242317 2.956864,-0.177197 3.854592,-0.120346 5.037997,0.31904 2.9735,1.104026 3.871945,1.205334 5.425987,0.61184 0.796377,-0.304138 2.089513,-0.959843 2.873635,-1.457117 1.793305,-1.13728 3.221533,-1.219011 3.217737,-0.184137 -0.0026,0.738272 -0.758275,1.270915 -4.312054,3.039817 -1.385808,0.689789 -1.909769,0.775066 -4,0.651005 -1.513053,-0.0898 -2.820771,-0.367011 -3.525305,-0.747296 -0.899411,-0.485469 -1.685552,-0.589907 -3.991495,-0.530272 -2.888377,0.0747 -4.737164,0.56271 -7.530553,1.987789 -1.509776,0.770233 -3.909216,0.825965 -5.332835,0.123865 z m 9.174883,-11.831408 c 0,-0.474713 -15.864982,-30.136945 -16.055807,-30.019009 -0.225651,0.13946 -20.503444,29.486296 -20.6908588,29.944641 -0.058667,0.143479 8.1853328,0.260868 18.3199998,0.260868 10.134666,0 18.426666,-0.08392 18.426666,-0.1865 z m 17.085279,-25.4935 C 55.233743,17.012 49.491932,5.5583682 49.445698,5.5074853 49.399464,5.4566024 45.882376,11.10997 41.629951,18.070525 l -7.731686,12.655554 6.759244,12.79696 6.759242,12.79696 H 61.148773 74.880798 Z M 17.571672,39.356447 C 26.781445,25.977585 28.705213,23.359999 29.3281,23.359999 c 0.61131,0 0.979011,0.46591 2.052117,2.600211 0.719049,1.430116 1.424781,2.474116 1.568291,2.32 C 33.446742,27.745165 48.007909,3.7412437 47.899816,3.63315 47.840028,3.5733612 46.301391,3.3715692 44.48062,3.184723 36.241433,2.3392223 27.40238,4.6028741 20.187265,9.4061713 12.593422,14.461597 7.0114021,22.244824 4.6474146,31.073988 2.6690014,38.463087 2.9334431,45.529653 5.4813912,53.359999 c 0.3579335,1.1 0.7470477,1.998403 0.8646982,1.996448 0.1176509,-0.0019 5.1691626,-7.201952 11.2255826,-16 z M 77.622277,50.399999 C 81.078216,37.559938 77.305643,23.623222 67.801211,14.118787 64.971598,11.289175 60.231215,7.9267592 57.108875,6.5345752 55.087896,5.6334642 51.922258,4.4799999 51.470172,4.4799999 c -0.148298,0 5.380236,11.3008371 12.285631,25.1129721 10.382845,20.767699 12.601645,24.989606 12.82329,24.399999 0.147411,-0.392134 0.616844,-2.008972 1.043184,-3.592972 z"
       id="path3727"
       inkscape:connector-curvature="0" />
    <path
       style="fill:#333333;fill-opacity:1;stroke-width:0.31999999"
       d="M 34.399999,80.507409 C 30.621745,79.775947 28.207058,79.055844 25.232958,77.77364 13.671256,72.789118 5.1250626,62.679624 1.9873454,50.275855 1.2045975,47.181557 1.1283138,46.340082 1.1283138,40.799999 c 0,-5.540083 0.076284,-6.381558 0.8590316,-9.475854 C 5.7218155,16.561338 16.881338,5.4018155 31.644145,1.6673454 c 3.094296,-0.78274792 3.935771,-0.85903163 9.475854,-0.85903163 5.540083,0 6.381558,0.0762837 9.475856,0.85903163 14.762806,3.7344701 25.922329,14.8939926 29.656799,29.6567996 0.782746,3.094296 0.85903,3.935771 0.85903,9.475854 0,5.540083 -0.07628,6.381558 -0.85903,9.475856 -3.716925,14.693439 -14.90863,25.930687 -29.490524,29.61053 -2.687248,0.678144 -4.173174,0.838413 -8.682131,0.936429 -3.717165,0.08081 -6.149401,-0.01907 -7.68,-0.315405 z m 10.4,-2.118093 c 8.731347,-0.91791 16.847244,-4.754137 22.93318,-10.840076 2.313363,-2.31336 5.541923,-6.490227 6.059734,-7.839629 0.178096,-0.464112 -2.739068,-0.509612 -32.672914,-0.509612 -29.933846,0 -32.851012,0.0455 -32.6729147,0.509612 0.5178131,1.349402 3.7463727,5.526269 6.0597337,7.839629 5.936698,5.936697 14.294897,9.952675 22.524285,10.822544 3.541661,0.374364 4.357149,0.376204 7.768896,0.01754 z m -15.68,-5.379721 c 0,-1.764707 0.82185,-2.390093 3.352711,-2.551245 1.785635,-0.113702 2.167715,-0.03149 3.101888,0.667437 0.585971,0.43841 1.569401,0.96983 2.185401,1.180934 1.011843,0.346759 1.351763,0.285498 3.52,-0.634368 3.227389,-1.369212 6.171078,-1.623088 7.966822,-0.687094 1.921159,1.001363 4.01744,1.176125 6.276915,0.523286 1.053946,-0.304521 2.200304,-0.750518 2.547466,-0.99111 0.347158,-0.240589 1.103158,-0.437437 1.68,-0.437437 0.875395,0 1.048189,0.11904 1.045126,0.72 -0.004,0.775495 -1.020509,1.375024 -3.982813,2.348938 -2.27184,0.746909 -6.900351,0.505273 -8.649305,-0.451546 -1.509853,-0.826009 -2.436662,-0.723584 -5.725923,0.632797 -3.35001,1.381434 -5.926179,1.166051 -8.289337,-0.693037 -1.297108,-1.020432 -3.428951,-0.397449 -3.428951,1.002029 0,0.427539 -0.230724,0.600819 -0.8,0.600819 -0.714625,0 -0.8,-0.131305 -0.8,-1.230403 z m 6.825117,-4.724688 c -0.558189,-0.275286 -1.566189,-0.960672 -2.24,-1.523081 -1.824229,-1.522624 -2.845409,-1.865408 -6.091562,-2.044794 -2.31065,-0.127686 -3.182603,-0.05076 -4.040866,0.356515 -1.215921,0.576992 -2.132689,1.761354 -2.132689,2.755194 0,0.481341 -0.208723,0.651257 -0.8,0.651257 -0.724992,0 -0.799999,-0.124681 -0.799999,-1.329795 0,-1.433785 1.230162,-3.470205 2.096285,-3.470205 0.255043,0 0.463714,-0.159696 0.463714,-0.354876 0,-0.249876 1.39658,-0.315095 4.72,-0.22042 5.151667,0.146756 6.161242,0.412829 8.03585,2.117866 0.591718,0.538192 1.584649,1.219974 2.206515,1.515069 1.063302,0.504569 1.199389,0.503081 2.28415,-0.02496 3.312743,-1.612541 4.88049,-2.02928 8.435488,-2.242317 2.956864,-0.177197 3.854592,-0.120346 5.037997,0.31904 2.9735,1.104026 3.871945,1.205334 5.425987,0.61184 0.796377,-0.304138 2.089513,-0.959843 2.873635,-1.457117 1.793305,-1.13728 3.221533,-1.219011 3.217737,-0.184137 -0.0026,0.738272 -0.758275,1.270915 -4.312054,3.039817 -1.385808,0.689789 -1.909769,0.775066 -4,0.651005 -1.513053,-0.0898 -2.820771,-0.367011 -3.525305,-0.747296 -0.899411,-0.485469 -1.685552,-0.589907 -3.991495,-0.530272 -2.888377,0.0747 -4.737164,0.56271 -7.530553,1.987789 -1.509776,0.770233 -3.909216,0.825965 -5.332835,0.123865 z m 9.174883,-11.831408 c 0,-0.474713 -15.864982,-30.136945 -16.055807,-30.019009 -0.225651,0.13946 -20.503444,29.486296 -20.6908588,29.944641 -0.058667,0.143479 8.1853328,0.260868 18.3199998,0.260868 10.134666,0 18.426666,-0.08392 18.426666,-0.1865 z m 17.085279,-25.4935 C 55.233743,17.012 49.491932,5.5583682 49.445698,5.5074853 49.399464,5.4566024 45.882376,11.10997 41.629951,18.070525 l -7.731686,12.655554 6.759244,12.79696 6.759242,12.79696 H 61.148773 74.880798 Z M 17.571672,39.356447 C 26.781445,25.977585 28.705213,23.359999 29.3281,23.359999 c 0.61131,0 0.979011,0.46591 2.052117,2.600211 0.719049,1.430116 1.424781,2.474116 1.568291,2.32 C 33.446742,27.745165 48.007909,3.7412437 47.899816,3.63315 47.840028,3.5733612 46.301391,3.3715692 44.48062,3.184723 36.241433,2.3392223 27.40238,4.6028741 20.187265,9.4061713 12.593422,14.461597 7.0114021,22.244824 4.6474146,31.073988 2.6690014,38.463087 2.9334431,45.529653 5.4813912,53.359999 c 0.3579335,1.1 0.7470477,1.998403 0.8646982,1.996448 0.1176509,-0.0019 5.1691626,-7.201952 11.2255826,-16 z M 77.622277,50.399999 C 81.078216,37.559938 77.305643,23.623222 67.801211,14.118787 64.971598,11.289175 60.231215,7.9267592 57.108875,6.5345752 55.087896,5.6334642 51.922258,4.4799999 51.470172,4.4799999 c -0.148298,0 5.380236,11.3008371 12.285631,25.1129721 10.382845,20.767699 12.601645,24.989606 12.82329,24.399999 0.147411,-0.392134 0.616844,-2.008972 1.043184,-3.592972 z"
       id="path3725"
       inkscape:connector-curvature="0" />
  </g>
  <path
     style="stroke-width:0.07599258"
     d="M 36.605624,81.003057 C 33.208986,80.795407 28.687869,79.637196 24.924904,78.010712 20.162502,75.952243 16.089594,73.19055 12.436118,69.542517 9.1068007,66.218161 6.7592295,62.947003 4.6906886,58.749861 3.1558435,55.635607 2.2957322,53.252849 1.4576366,49.793366 0.85995001,47.326241 0.77528855,46.229136 0.77656924,40.967598 0.77787313,35.610748 0.87381162,34.536835 1.6118978,31.617128 2.4152632,28.439192 3.6155995,25.273716 5.0829533,22.463406 10.25191,12.563702 19.207674,5.3112157 30.045797,2.2481909 31.551255,1.8227244 33.187586,1.446437 34.152424,1.3038392 36.565487,0.94720123 44.931441,0.94688444 47.336321,1.3033399 c 0.903006,0.1338452 1.295964,0.21759 2.871975,0.612058 9.92946,2.4852973 18.516142,8.5381711 24.091972,16.9827721 2.103423,3.185636 3.927441,7.085439 5.017493,10.727555 0.849157,2.837216 1.205645,4.673634 1.323973,6.820315 0.09771,1.772706 0.09834,7.362129 9.88e-4,9.119109 -0.09277,1.674912 -0.17131,2.257051 -0.502371,3.723637 -1.764381,7.816126 -5.497386,14.658708 -11.008824,20.179121 -5.172587,5.181011 -11.662709,8.854147 -18.792496,10.63577 -2.289015,0.571981 -3.674639,0.751361 -6.74212,0.87282 -1.718967,0.06806 -6.043749,0.08449 -6.991317,0.02656 z m 5.281484,-2.155621 c 5.744633,-0.356185 10.521911,-1.557118 15.239812,-3.831054 4.457858,-2.148598 8.47475,-5.158037 11.568752,-8.667263 2.153597,-2.442613 4.425621,-5.511263 4.684542,-6.327051 0.07637,-0.240636 -0.129595,-0.312581 -1.148941,-0.401322 -3.344652,-0.291175 -59.655209,-0.293934 -62.9469787,-0.0031 -1.0146894,0.08965 -1.2138826,0.139899 -1.2138826,0.306194 0,0.48831 2.3491923,3.718653 4.4667473,6.142164 5.453051,6.240938 13.377156,10.688785 21.750692,12.208789 1.514502,0.274926 4.056123,0.540596 6.117402,0.63944 0.125388,0.006 0.792223,-0.02405 1.481855,-0.06681 z m 1.690835,-22.084864 c 0.87317,-0.03804 1.120891,-0.07179 1.120891,-0.152677 0,-0.447807 -14.131936,-26.959335 -15.794434,-29.630376 l -0.221221,-0.355424 -0.831274,1.168338 C 24.187426,32.942785 7.9944191,56.439811 7.9944191,56.606838 c 0,0.0784 2.0610849,0.152426 5.8134319,0.208786 4.336951,0.06514 28.026302,0.02293 29.770092,-0.05305 z m 30.909981,-0.216766 c 0,-0.02105 -5.714708,-11.467336 -12.699351,-25.436199 L 49.089224,5.7116757 48.9399,5.896083 c -0.152604,0.1884571 -3.150251,4.980086 -5.039937,8.056154 -6.428146,10.463863 -10.372591,16.98728 -10.333349,17.089542 0.0557,0.145141 13.238459,25.130389 13.386458,25.371311 l 0.105036,0.170983 h 13.714907 c 7.5432,0 13.714909,-0.01722 13.714909,-0.03827 z M 7.5302134,53.468377 c 1.7042328,-2.38048 4.9577246,-7.050379 9.9269276,-14.248608 7.893502,-11.434277 9.941884,-14.284598 10.952513,-15.240409 0.38111,-0.360438 0.440252,-0.390512 0.688693,-0.350195 0.498245,0.08085 0.77616,0.451217 1.813734,2.417071 0.70258,1.331153 1.204861,2.145587 1.465619,2.376461 0.162432,0.143816 0.166247,0.143816 0.272505,0 C 33.185247,27.698528 40.51142,15.697693 44.82419,8.4807717 47.620491,3.8014849 47.554201,3.9191627 47.43524,3.8456406 47.332682,3.7822563 46.084183,3.6094453 44.356867,3.4195478 42.845388,3.2533788 39.816675,3.197523 38.307457,3.3079841 33.927999,3.6285205 29.811729,4.6363221 25.814678,6.366637 12.944608,11.938064 4.2365507,24.101987 3.0570134,38.155873 c -0.1003797,1.195999 -0.099296,4.40753 0.0019,5.63831 0.1013619,1.232766 0.3956546,3.304326 0.647967,4.561111 0.5399293,2.689426 1.6306501,6.312049 2.129867,7.07395 L 5.961851,55.620177 6.1067773,55.43719 c 0.07971,-0.100643 0.7202549,-0.986609 1.423434,-1.968813 z M 76.607533,52.932027 C 77.952441,48.397384 78.51721,44.869579 78.514778,41.018548 78.508273,30.711931 74.132501,20.611176 66.629547,13.583445 64.00665,11.126678 60.077114,8.37969 57.199613,6.9913393 55.573698,6.2068604 52.298655,4.9510795 51.285126,4.7234915 c -0.194478,-0.04367 -0.210024,-0.032475 -0.162559,0.1170733 0.367857,1.1590159 14.305216,29.2838602 20.68959,41.7504842 3.032257,5.921021 4.143974,7.871281 4.362399,7.652856 0.03432,-0.03432 0.229161,-0.624666 0.432977,-1.311878 z"
     id="path14"
     inkscape:connector-curvature="0" />
  <path
     style="stroke-width:0.07599258"
     d="m 36.681617,68.863603 c -1.01813,-0.234637 -1.83953,-0.698047 -3.38167,-1.907839 -1.522511,-1.194394 -2.243736,-1.541831 -3.700645,-1.78272 -0.957805,-0.158366 -2.965417,-0.307149 -4.088594,-0.303002 -0.862052,0.0032 -1.739814,0.157651 -2.258092,0.397379 -1.193115,0.551874 -2.187474,1.78777 -2.187474,2.718828 0,0.168387 -0.06284,0.360078 -0.1575,0.480414 -0.140636,0.17879 -0.20922,0.20023 -0.640509,0.20023 -0.576945,0 -0.691379,-0.08694 -0.76556,-0.581609 -0.175556,-1.170689 0.355948,-2.757144 1.221603,-3.646291 0.298354,-0.306451 0.473813,-0.417079 0.81692,-0.515073 0.240326,-0.06864 0.436957,-0.151503 0.436957,-0.184143 0,-0.03264 0.0444,-0.120064 0.09866,-0.194275 0.151756,-0.207539 1.587292,-0.269694 4.422896,-0.1915 5.539713,0.152761 6.155011,0.321613 8.587161,2.356526 0.626174,0.523902 1.396379,1.023449 2.074428,1.345454 0.779813,0.370331 1.07829,0.364779 1.953178,-0.03633 1.966168,-0.901431 2.453823,-1.108638 3.277879,-1.392784 1.844156,-0.635892 4.509583,-0.985788 7.513067,-0.986255 1.485209,-2.28e-4 1.847137,0.06515 3.571651,0.645257 2.869382,0.965219 3.496227,0.953499 5.699444,-0.106566 0.501551,-0.241318 1.33748,-0.683856 1.857622,-0.983418 1.21649,-0.700607 1.652549,-0.866324 2.309195,-0.877574 0.4798,-0.0082 0.53311,0.0073 0.702931,0.204322 0.350126,0.406257 0.192261,0.928389 -0.434787,1.438037 -0.750065,0.609634 -4.232421,2.401037 -5.080898,2.61373 -0.405456,0.101638 -0.75944,0.116547 -1.975807,0.08322 -2.040499,-0.05591 -3.029807,-0.246306 -4.358912,-0.838889 -0.859131,-0.383045 -1.542729,-0.460467 -3.616521,-0.409593 -2.956444,0.07253 -4.458084,0.429535 -7.113217,1.691138 -1.451496,0.689687 -1.880297,0.801103 -3.225561,0.838102 -0.765978,0.02107 -1.240891,-0.0017 -1.557848,-0.07477 z"
     id="path16"
     inkscape:connector-curvature="0" />
  <path
     style="stroke-width:0.07599258"
     d="m 28.923154,74.282121 c -0.217602,-0.240815 -0.205215,-1.705997 0.01856,-2.195562 0.445313,-0.974231 1.563653,-1.374229 3.902276,-1.395732 1.278711,-0.01176 1.364843,0.01513 2.516577,0.78551 0.846638,0.566307 1.771961,1.020014 2.416071,1.184654 0.666675,0.170409 1.022811,0.09016 2.894222,-0.652142 2.503183,-0.992899 3.793844,-1.301499 5.471831,-1.308324 1.240691,-0.005 1.730845,0.09969 2.912164,0.622257 1.884737,0.833735 3.323102,0.998044 5.303582,0.605846 0.903944,-0.17901 2.317187,-0.660766 3.11478,-1.061788 0.754494,-0.379352 1.319327,-0.528111 2.005228,-0.528111 0.632119,0 0.846655,0.114359 0.916891,0.488748 0.06397,0.340997 -0.129726,0.739435 -0.503316,1.035323 -0.612059,0.48476 -3.0207,1.441381 -4.288618,1.703277 -0.883317,0.182454 -2.582484,0.266264 -3.820479,0.188443 -1.784491,-0.112175 -3.098094,-0.393493 -4.030912,-0.863253 -1.536071,-0.773553 -2.325534,-0.692115 -5.488481,0.566168 -3.498813,1.391898 -5.73011,1.297346 -8.127666,-0.344411 -0.906729,-0.620895 -1.221413,-0.747183 -1.861819,-0.747183 -1.077423,0 -1.93781,0.652485 -1.93781,1.46956 0,0.146986 -0.0693,0.303171 -0.186527,0.4204 -0.155821,0.15582 -0.26022,0.186528 -0.63416,0.186528 -0.35885,0 -0.476343,-0.03177 -0.592396,-0.160208 z"
     id="path18"
     inkscape:connector-curvature="0" />
</svg>
